<mxfile host="app.diagrams.net" modified="2023-11-08T08:17:12.867Z" agent="Mozilla/5.0 (Windows NT 10.0; Win64; x64) AppleWebKit/537.36 (KHTML, like Gecko) Chrome/119.0.0.0 Safari/537.36" etag="NMBkXecDcgXXOrvICXhW" version="22.0.8" type="device">
  <diagram name="Page-1" id="_vzWcnUdKvkqLu--1F6f">
    <mxGraphModel dx="1356" dy="742" grid="1" gridSize="10" guides="1" tooltips="1" connect="1" arrows="1" fold="1" page="1" pageScale="1" pageWidth="850" pageHeight="1100" math="0" shadow="0">
      <root>
        <mxCell id="0" />
        <mxCell id="1" parent="0" />
        <mxCell id="NOWGbNrYo_npg0svL6ee-1" value="&lt;font style=&quot;font-size: 15px;&quot;&gt;Login&lt;/font&gt;" style="rounded=1;whiteSpace=wrap;html=1;" parent="1" vertex="1">
          <mxGeometry x="260" y="30" width="120" height="60" as="geometry" />
        </mxCell>
        <mxCell id="NOWGbNrYo_npg0svL6ee-2" value="&lt;font style=&quot;font-size: 15px;&quot;&gt;Please relogin&lt;/font&gt;" style="rounded=1;whiteSpace=wrap;html=1;" parent="1" vertex="1">
          <mxGeometry x="670" y="450" width="150" height="60" as="geometry" />
        </mxCell>
        <mxCell id="NOWGbNrYo_npg0svL6ee-3" value="&lt;font style=&quot;font-size: 15px;&quot;&gt;If invalid fields&lt;/font&gt;" style="strokeWidth=2;html=1;shape=mxgraph.flowchart.decision;whiteSpace=wrap;" parent="1" vertex="1">
          <mxGeometry x="440" y="590" width="180" height="100" as="geometry" />
        </mxCell>
        <mxCell id="NOWGbNrYo_npg0svL6ee-4" value="&lt;font style=&quot;font-size: 15px;&quot;&gt;If valid login&lt;/font&gt;" style="strokeWidth=2;html=1;shape=mxgraph.flowchart.decision;whiteSpace=wrap;" parent="1" vertex="1">
          <mxGeometry x="240" y="310" width="160" height="100" as="geometry" />
        </mxCell>
        <mxCell id="NOWGbNrYo_npg0svL6ee-5" value="&lt;font style=&quot;font-size: 15px;&quot;&gt;If empty field&lt;/font&gt;" style="strokeWidth=2;html=1;shape=mxgraph.flowchart.decision;whiteSpace=wrap;" parent="1" vertex="1">
          <mxGeometry x="440" y="430" width="180" height="100" as="geometry" />
        </mxCell>
        <mxCell id="NOWGbNrYo_npg0svL6ee-7" value="&lt;font style=&quot;font-size: 15px;&quot;&gt;login(self, request)&lt;/font&gt;" style="rounded=1;whiteSpace=wrap;html=1;" parent="1" vertex="1">
          <mxGeometry x="220" y="170" width="200" height="60" as="geometry" />
        </mxCell>
        <mxCell id="NOWGbNrYo_npg0svL6ee-8" value="&lt;font style=&quot;font-size: 15px;&quot;&gt;Success&lt;/font&gt;" style="rounded=1;whiteSpace=wrap;html=1;" parent="1" vertex="1">
          <mxGeometry x="80" y="450" width="120" height="60" as="geometry" />
        </mxCell>
        <mxCell id="NOWGbNrYo_npg0svL6ee-9" value="&lt;font style=&quot;font-size: 15px;&quot;&gt;Please relogin&lt;/font&gt;" style="rounded=1;whiteSpace=wrap;html=1;" parent="1" vertex="1">
          <mxGeometry x="670" y="610" width="150" height="60" as="geometry" />
        </mxCell>
        <mxCell id="NOWGbNrYo_npg0svL6ee-11" value="" style="endArrow=classic;html=1;rounded=0;entryX=0.5;entryY=0;entryDx=0;entryDy=0;exitX=0;exitY=0.5;exitDx=0;exitDy=0;exitPerimeter=0;" parent="1" source="NOWGbNrYo_npg0svL6ee-4" target="NOWGbNrYo_npg0svL6ee-8" edge="1">
          <mxGeometry width="50" height="50" relative="1" as="geometry">
            <mxPoint x="320" y="460" as="sourcePoint" />
            <mxPoint x="150" y="360" as="targetPoint" />
            <Array as="points">
              <mxPoint x="140" y="360" />
            </Array>
          </mxGeometry>
        </mxCell>
        <mxCell id="NOWGbNrYo_npg0svL6ee-14" value="" style="endArrow=classic;html=1;rounded=0;entryX=0.5;entryY=0;entryDx=0;entryDy=0;entryPerimeter=0;" parent="1" source="NOWGbNrYo_npg0svL6ee-7" target="NOWGbNrYo_npg0svL6ee-4" edge="1">
          <mxGeometry width="50" height="50" relative="1" as="geometry">
            <mxPoint x="320" y="280" as="sourcePoint" />
            <mxPoint x="320" y="300.71067811865476" as="targetPoint" />
          </mxGeometry>
        </mxCell>
        <mxCell id="NOWGbNrYo_npg0svL6ee-15" value="" style="endArrow=classic;html=1;rounded=0;entryX=0.5;entryY=0;entryDx=0;entryDy=0;entryPerimeter=0;" parent="1" source="NOWGbNrYo_npg0svL6ee-4" target="NOWGbNrYo_npg0svL6ee-5" edge="1">
          <mxGeometry width="50" height="50" relative="1" as="geometry">
            <mxPoint x="370" y="410" as="sourcePoint" />
            <mxPoint x="440.71067811865476" y="360" as="targetPoint" />
            <Array as="points">
              <mxPoint x="530" y="360" />
            </Array>
          </mxGeometry>
        </mxCell>
        <mxCell id="NOWGbNrYo_npg0svL6ee-19" value="" style="endArrow=classic;html=1;rounded=0;entryX=0.5;entryY=0;entryDx=0;entryDy=0;entryPerimeter=0;" parent="1" source="NOWGbNrYo_npg0svL6ee-5" target="NOWGbNrYo_npg0svL6ee-3" edge="1">
          <mxGeometry width="50" height="50" relative="1" as="geometry">
            <mxPoint x="530" y="580" as="sourcePoint" />
            <mxPoint x="530" y="601" as="targetPoint" />
          </mxGeometry>
        </mxCell>
        <mxCell id="NOWGbNrYo_npg0svL6ee-20" value="" style="endArrow=classic;html=1;rounded=0;entryX=0;entryY=0.5;entryDx=0;entryDy=0;" parent="1" source="NOWGbNrYo_npg0svL6ee-5" target="NOWGbNrYo_npg0svL6ee-2" edge="1">
          <mxGeometry width="50" height="50" relative="1" as="geometry">
            <mxPoint x="580" y="530" as="sourcePoint" />
            <mxPoint x="650.7106781186548" y="480" as="targetPoint" />
          </mxGeometry>
        </mxCell>
        <mxCell id="NOWGbNrYo_npg0svL6ee-21" value="" style="endArrow=classic;html=1;rounded=0;" parent="1" source="NOWGbNrYo_npg0svL6ee-3" edge="1">
          <mxGeometry width="50" height="50" relative="1" as="geometry">
            <mxPoint x="600" y="690" as="sourcePoint" />
            <mxPoint x="670" y="640" as="targetPoint" />
          </mxGeometry>
        </mxCell>
        <mxCell id="NOWGbNrYo_npg0svL6ee-22" value="" style="endArrow=classic;html=1;rounded=0;entryX=1;entryY=0.5;entryDx=0;entryDy=0;exitX=1;exitY=0.5;exitDx=0;exitDy=0;" parent="1" source="NOWGbNrYo_npg0svL6ee-2" target="NOWGbNrYo_npg0svL6ee-7" edge="1">
          <mxGeometry width="50" height="50" relative="1" as="geometry">
            <mxPoint x="790" y="530" as="sourcePoint" />
            <mxPoint x="860.7106781186548" y="480" as="targetPoint" />
            <Array as="points">
              <mxPoint x="840" y="480" />
              <mxPoint x="840" y="640" />
              <mxPoint x="840" y="200" />
            </Array>
          </mxGeometry>
        </mxCell>
        <mxCell id="NOWGbNrYo_npg0svL6ee-23" value="" style="endArrow=classic;html=1;rounded=0;exitX=1;exitY=0.5;exitDx=0;exitDy=0;entryX=1;entryY=0.5;entryDx=0;entryDy=0;" parent="1" source="NOWGbNrYo_npg0svL6ee-9" target="NOWGbNrYo_npg0svL6ee-7" edge="1">
          <mxGeometry width="50" height="50" relative="1" as="geometry">
            <mxPoint x="790" y="690" as="sourcePoint" />
            <mxPoint x="390" y="800" as="targetPoint" />
            <Array as="points">
              <mxPoint x="840" y="640" />
              <mxPoint x="840" y="200" />
            </Array>
          </mxGeometry>
        </mxCell>
        <mxCell id="NOWGbNrYo_npg0svL6ee-24" value="" style="endArrow=classic;html=1;rounded=0;entryX=0.5;entryY=0;entryDx=0;entryDy=0;" parent="1" source="NOWGbNrYo_npg0svL6ee-1" target="NOWGbNrYo_npg0svL6ee-7" edge="1">
          <mxGeometry width="50" height="50" relative="1" as="geometry">
            <mxPoint x="320" y="140" as="sourcePoint" />
            <mxPoint x="320" y="160.71067811865476" as="targetPoint" />
          </mxGeometry>
        </mxCell>
        <mxCell id="NOWGbNrYo_npg0svL6ee-25" value="&lt;font style=&quot;font-size: 15px;&quot;&gt;True&lt;/font&gt;" style="text;html=1;strokeColor=none;fillColor=none;align=center;verticalAlign=middle;whiteSpace=wrap;rounded=0;" parent="1" vertex="1">
          <mxGeometry x="170" y="320" width="60" height="30" as="geometry" />
        </mxCell>
        <mxCell id="NOWGbNrYo_npg0svL6ee-27" value="&lt;font style=&quot;font-size: 15px;&quot;&gt;False&lt;/font&gt;" style="text;html=1;strokeColor=none;fillColor=none;align=center;verticalAlign=middle;whiteSpace=wrap;rounded=0;" parent="1" vertex="1">
          <mxGeometry x="420" y="320" width="60" height="30" as="geometry" />
        </mxCell>
        <mxCell id="NOWGbNrYo_npg0svL6ee-28" value="&lt;font style=&quot;font-size: 15px;&quot;&gt;False&lt;/font&gt;" style="text;html=1;strokeColor=none;fillColor=none;align=center;verticalAlign=middle;whiteSpace=wrap;rounded=0;" parent="1" vertex="1">
          <mxGeometry x="450" y="540" width="60" height="30" as="geometry" />
        </mxCell>
        <mxCell id="NOWGbNrYo_npg0svL6ee-30" value="&lt;font style=&quot;font-size: 15px;&quot;&gt;True&lt;/font&gt;" style="text;html=1;strokeColor=none;fillColor=none;align=center;verticalAlign=middle;whiteSpace=wrap;rounded=0;" parent="1" vertex="1">
          <mxGeometry x="610" y="440" width="60" height="30" as="geometry" />
        </mxCell>
        <mxCell id="nELank9bkPoUkrXM4w-m-1" value="&lt;font style=&quot;font-size: 15px;&quot;&gt;1&lt;/font&gt;" style="text;html=1;strokeColor=none;fillColor=none;align=center;verticalAlign=middle;whiteSpace=wrap;rounded=0;" vertex="1" parent="1">
          <mxGeometry x="210" y="45" width="60" height="30" as="geometry" />
        </mxCell>
        <mxCell id="nELank9bkPoUkrXM4w-m-3" value="&lt;font style=&quot;font-size: 15px;&quot;&gt;2&lt;/font&gt;" style="text;html=1;strokeColor=none;fillColor=none;align=center;verticalAlign=middle;whiteSpace=wrap;rounded=0;" vertex="1" parent="1">
          <mxGeometry x="180" y="180" width="60" height="30" as="geometry" />
        </mxCell>
        <mxCell id="nELank9bkPoUkrXM4w-m-4" value="&lt;font style=&quot;font-size: 15px;&quot;&gt;4&lt;br&gt;&lt;/font&gt;" style="text;html=1;strokeColor=none;fillColor=none;align=center;verticalAlign=middle;whiteSpace=wrap;rounded=0;" vertex="1" parent="1">
          <mxGeometry x="40" y="465" width="60" height="30" as="geometry" />
        </mxCell>
        <mxCell id="nELank9bkPoUkrXM4w-m-5" value="&lt;font style=&quot;font-size: 15px;&quot;&gt;3&lt;/font&gt;" style="text;html=1;strokeColor=none;fillColor=none;align=center;verticalAlign=middle;whiteSpace=wrap;rounded=0;" vertex="1" parent="1">
          <mxGeometry x="250" y="300" width="60" height="30" as="geometry" />
        </mxCell>
        <mxCell id="nELank9bkPoUkrXM4w-m-6" value="&lt;font style=&quot;font-size: 15px;&quot;&gt;5&lt;br&gt;&lt;/font&gt;" style="text;html=1;strokeColor=none;fillColor=none;align=center;verticalAlign=middle;whiteSpace=wrap;rounded=0;" vertex="1" parent="1">
          <mxGeometry x="440" y="430" width="60" height="30" as="geometry" />
        </mxCell>
        <mxCell id="nELank9bkPoUkrXM4w-m-7" value="&lt;font style=&quot;font-size: 15px;&quot;&gt;6&lt;br&gt;&lt;/font&gt;" style="text;html=1;strokeColor=none;fillColor=none;align=center;verticalAlign=middle;whiteSpace=wrap;rounded=0;" vertex="1" parent="1">
          <mxGeometry x="680" y="420" width="60" height="30" as="geometry" />
        </mxCell>
        <mxCell id="nELank9bkPoUkrXM4w-m-8" value="&lt;font style=&quot;font-size: 15px;&quot;&gt;7&lt;/font&gt;" style="text;html=1;strokeColor=none;fillColor=none;align=center;verticalAlign=middle;whiteSpace=wrap;rounded=0;" vertex="1" parent="1">
          <mxGeometry x="390" y="625" width="60" height="30" as="geometry" />
        </mxCell>
        <mxCell id="nELank9bkPoUkrXM4w-m-9" value="&lt;font style=&quot;font-size: 15px;&quot;&gt;8&lt;/font&gt;" style="text;html=1;strokeColor=none;fillColor=none;align=center;verticalAlign=middle;whiteSpace=wrap;rounded=0;" vertex="1" parent="1">
          <mxGeometry x="680" y="580" width="60" height="30" as="geometry" />
        </mxCell>
      </root>
    </mxGraphModel>
  </diagram>
</mxfile>
